<svg
        width='124'
        height="auto"
        viewBox="0 0 156 69"
        fill="none"
        xmlns="http://www.w3.org/2000/svg"
>
    <path
            d="M109.021 69V0.359985H128.131V53.4H155.431V69H109.021Z"
            fill="white"
    />
    <path
            d="M52.6113 69V0.359985H74.0613C81.428 0.359985 87.928 1.48665 93.5613 3.73998C99.2813 5.90665 103.788 9.45998 107.081 14.4C110.375 19.34 112.021 25.97 112.021 34.29C112.021 42.61 110.375 49.3267 107.081 54.44C103.875 59.4667 99.498 63.15 93.9513 65.49C88.4913 67.83 82.2947 69 75.3613 69H52.6113ZM71.7213 54.18H75.2313C80.6047 54.18 84.808 52.6633 87.8413 49.63C90.8747 46.51 92.3913 41.3967 92.3913 34.29C92.3913 27.3567 90.8747 22.46 87.8413 19.6C84.808 16.6533 80.6047 15.18 75.2313 15.18H71.7213V54.18Z"
            fill="white"
    />
    <path
            d="M0.00976562 69V0.359985H27.8298C33.1164 0.359985 37.9264 1.05332 42.2598 2.43998C46.6798 3.82665 50.2331 6.20998 52.9198 9.58998C55.6064 12.8833 56.9498 17.4333 56.9498 23.24C56.9498 28.8733 55.5631 33.4666 52.7898 37.02C50.1031 40.5733 46.5498 43.1733 42.1298 44.82C37.7098 46.4667 32.9431 47.29 27.8298 47.29H19.1198V69H0.00976562ZM19.1198 34.16H27.1798C30.9931 34.16 33.8531 33.2933 35.7598 31.56C37.7531 29.74 38.7498 27.3566 38.7498 24.41C38.7498 21.2033 37.7964 18.9066 35.8898 17.52C33.9831 16.0466 31.0798 15.31 27.1798 15.31H19.1198V34.16Z"
            fill="white"
    />
</svg>
